<svg id="Layer_1" enable-background="new 0 0 512.002 512.002" height="512" viewBox="0 0 512.002 512.002" width="512" xmlns="http://www.w3.org/2000/svg" fill="#c4d0db">
    <g>
        <g>
            <path d="m469.574 184.681c-11.561-4.814-28.12-1.626-37.15 16.754-.026.053-.051.105-.076.158l-33.133 70.542c-11.667-4.826-25.542-.813-32.71 10.154-2.475 3.788-10.613 16.732-19.229 30.437-8.198 13.039-16.675 26.523-19.056 30.166-4.711 7.209-12.763 14.073-22.086 22.021-17.413 14.844-38.853 33.122-50.134 64.278-11.285-31.16-32.729-49.441-50.133-64.279-9.323-7.947-17.375-14.812-22.085-22.021-2.382-3.645-10.867-17.141-19.072-30.191-8.608-13.692-16.738-26.625-19.212-30.41-7.169-10.969-21.043-14.98-32.71-10.154l-33.133-70.542c-.025-.053-.05-.105-.076-.158-9.029-18.381-25.586-21.571-37.15-16.754-11.656 4.854-20.425 18.539-14.633 35.306.011.031.022.063.034.096 2.195 6.151 7.323 23.203 13.259 42.947 8.304 27.617 18.638 61.988 27.608 88.96 11.666 35.078 17.446 45.277 41.234 72.759l32.654 37.724v39.53c0 5.522 4.477 10 10 10h206.834c5.523 0 10-4.478 10-10v-39.53l32.654-37.724c23.789-27.482 29.569-37.682 41.234-72.759 8.971-26.974 19.306-61.347 27.61-88.966 5.936-19.742 11.062-36.791 13.257-42.941.011-.032.022-.064.034-.096 5.791-16.767-2.978-30.454-14.634-35.307zm-226.45 307.321h-80.541v-33.257c0-2.404-.866-4.728-2.439-6.545l-35.093-40.542c-22.02-25.438-26.561-33.454-37.377-65.979-8.878-26.698-19.167-60.914-27.434-88.408-6.247-20.774-11.184-37.195-13.557-43.858-1.954-5.709.625-9.1 3.433-10.269 4.09-1.702 8.479.991 11.473 7.034l36.745 78.232c-1.334 5.198-1.327 11.855 1.053 20.371 6.86 24.546 15.919 49.363 24.853 68.089 2.378 4.986 8.347 7.101 13.332 4.72 4.984-2.378 7.098-8.347 4.719-13.331-8.46-17.733-17.078-41.374-23.642-64.86-2.779-9.943-.181-11.639.673-12.195 3.082-2.009 7.402-1.08 9.433 2.026 2.377 3.639 10.839 17.098 19.022 30.114 8.631 13.729 16.784 26.696 19.262 30.488 6.286 9.619 15.791 17.722 25.853 26.3 26.206 22.341 55.808 47.577 50.232 111.87zm222.195-278.592c-2.373 6.661-7.31 23.08-13.556 43.854-8.267 27.496-18.556 61.715-27.436 88.415-10.816 32.524-15.357 40.541-37.377 65.979l-35.093 40.542c-1.573 1.817-2.439 4.141-2.439 6.545v33.257h-80.54c-5.579-64.288 24.02-89.522 50.232-111.869 10.062-8.578 19.566-16.681 25.853-26.301 2.476-3.789 10.622-16.745 19.245-30.462 8.191-13.027 16.66-26.499 19.039-30.14 2.031-3.108 6.352-4.037 9.433-2.027.854.557 3.452 2.251.673 12.195-6.563 23.485-15.181 47.126-23.642 64.86-2.378 4.984-.265 10.953 4.719 13.331 4.983 2.379 10.954.267 13.332-4.72 8.935-18.727 17.993-43.544 24.853-68.089 2.38-8.515 2.387-15.173 1.054-20.37l36.742-78.228c2.993-6.046 7.381-8.746 11.476-7.04 2.806 1.171 5.384 4.56 3.432 10.268z" />
            <path d="m256.001 300.001c82.71 0 150-67.29 150-150 0-82.711-67.29-150.001-150-150.001-23.513 0-46.041 5.3-66.957 15.751-4.94 2.469-6.944 8.475-4.476 13.415 2.469 4.941 8.476 6.944 13.415 4.476 13.299-6.645 27.358-10.876 41.957-12.661 9.08 15.12 14.373 34.902 8.209 45.141-4.802 7.979-17.287 8.298-26.915 7.163-11.479-1.355-22.269 2.349-31.2 10.711-11.793 11.04-18.847 29.145-17.971 46.124.829 16.058.389 22.033-3.845 25.772-5.68 5.017-19.347 8.876-40.789 13.366-.937-6.286-1.428-12.715-1.428-19.257 0-20.383 4.589-39.901 13.638-58.012 2.469-4.94.465-10.946-4.476-13.415-4.941-2.472-10.947-.465-13.415 4.476-10.449 20.911-15.748 43.438-15.748 66.951.001 82.71 67.29 150 150.001 150zm0-20c-24.146 0-46.77-6.625-66.165-18.141 10.816-6.963 24.518-10.207 37.882-13.352 18.886-4.444 38.416-9.041 46.718-25.456 6.419-12.689 4.761-29.5-5.218-52.901-5.936-13.92-4.61-25.387 3.547-30.673 8.462-5.483 23.553-3.988 36.026 9.481 17.463 18.856 36.002 13.399 49.537 9.414 12.107-3.566 19.346-5.262 27.346.776-4.71 67.43-61.067 120.852-129.673 120.852zm-74.542-109.118c12.18-10.758 11.402-25.833 10.578-41.794-.567-10.992 4.23-23.531 11.667-30.493 4.558-4.267 9.67-6.103 15.188-5.448 28.042 3.302 40.706-7.262 46.394-16.711 9.34-15.516 5.578-37.677-3.155-56.288 64.437 3.006 116.764 53.141 123.204 116.638-12.08-3.655-23.525-.288-32.654 2.4-13.627 4.012-20.562 5.527-29.214-3.817-19.98-21.575-46.101-22.707-61.579-12.675-13.124 8.505-22.922 27.5-11.067 55.302 7.283 17.077 9.224 29.199 5.769 36.029-4.101 8.106-17.703 11.308-33.453 15.015-16.847 3.965-35.653 8.394-50.516 20.615-18.866-15.811-33.197-36.863-40.719-60.899 26.005-5.458 40.621-9.981 49.557-17.874z" />
            <path d="m157.006 61.007c2.401 0 4.811-.859 6.727-2.602 4.086-3.715 4.388-10.039.673-14.126-3.716-4.087-10.04-4.387-14.126-.673l-.005.005c-4.086 3.715-4.385 10.037-.67 14.124 1.972 2.17 4.681 3.272 7.401 3.272z" />
        </g>
    </g>
</svg>